<svg width="32" height="17" viewBox="0 0 32 17" fill="none" xmlns="http://www.w3.org/2000/svg">
<rect width="32" height="17" fill="#E5E5E5"/>
<path fill-rule="evenodd" clip-rule="evenodd" d="M37.2 20.4546C37.2 19.0364 37.0727 17.6727 36.8364 16.3636H18V24.1H28.7636C28.3 26.6 26.8909 28.7182 24.7727 30.1364V35.1546H31.2364C35.0182 31.6727 37.2 26.5455 37.2 20.4546Z" fill="#4285F4"/>
<path fill-rule="evenodd" clip-rule="evenodd" d="M6.80909 23.8C6.40909 22.6 6.18182 21.3182 6.18182 20C6.18182 18.6818 6.40909 17.4 6.80909 16.2V11.0182H0.127273C-1.22727 13.7182 -2 16.7727 -2 20C-2 23.2273 -1.22727 26.2818 0.127273 28.9818L6.80909 23.8Z" fill="#FBBC05"/>
<path fill-rule="evenodd" clip-rule="evenodd" d="M18 7.95455C20.9364 7.95455 23.5728 8.96364 25.6455 10.9455L31.3819 5.20909C27.9182 1.98182 23.391 0 18 0C10.1819 0 3.41823 4.48182 0.127319 11.0182L6.80914 16.2C8.38186 11.4727 12.791 7.95455 18 7.95455Z" fill="#EA4335"/>
<rect x="-21.5" y="-19.5" width="139" height="139" rx="4.5" stroke="#7B61FF" stroke-dasharray="10 5"/>
</svg>
